<svg xmlns="http://www.w3.org/2000/svg" viewBox="0 0 24 24" width="24" height="24">
  <style>
    .body { fill: #f2994a; }
    .ear-inner { fill: #fff8e1; }
    .face { fill: #fff8e1; }
    .outline { fill: #4a3000; }
    .eye { fill: #4a3000; }
    .nose { fill: #4a3000; }
    .eyebrow { fill: #4a3000; }
    .tongue { fill: #ff9a9a; }
    
    @media (prefers-color-scheme: dark) {
      .face, .ear-inner { fill: #fff8e1; }
      .eye, .nose, .outline, .eyebrow { fill: #4a3000; }
    }
  </style>
  
  <g transform="translate(2, 2.5) scale(0.83)">
    <!-- Head outline -->
    <path class="outline" d="M12,1c-2,0-4,1-5,3L5,2L3,5l1,3C4,8,3.5,9,3.5,10c0,1.5,0.5,3,2,4.5C7,16,9,18,12,18s5-2,7-3.5c1.5-1.5,2-3,2-4.5c0-1-0.5-2-0.5-2l1-3L19,2l-2,2C16,2,14,1,12,1z"/>
    
    <!-- Head -->
    <path class="body" d="M12,2c-1.8,0-3.7,0.8-4.6,2.7L5.3,3.2L4,5.5l0.8,2.3C4.5,8.3,4,9.1,4,10c0,1.3,0.4,2.7,1.8,4C7.3,15.4,9.1,17,12,17s4.7-1.6,6.2-3c1.3-1.3,1.8-2.7,1.8-4c0-0.9-0.5-1.7-0.8-2.2L20,5.5L18.7,3.2l-2.1,1.5C15.7,2.8,13.8,2,12,2z"/>
    
    <!-- Muzzle/face -->
    <path class="face" d="M12,8c-2.5,0-4.5,1.5-4.5,3.5c0,2,2,3.5,4.5,3.5s4.5-1.5,4.5-3.5C16.5,9.5,14.5,8,12,8z"/>
    
    <!-- Ears -->
    <path class="outline" d="M7,5L5,2L8,4L7,5z M17,5L19,2L16,4L17,5z"/>
    <path class="body" d="M7.5,4.5L6,2.5L8,4L7.5,4.5z M16.5,4.5L18,2.5L16,4L16.5,4.5z"/>
    <path class="ear-inner" d="M7.5,4L6.5,3L8,4L7.5,4z M16.5,4L17.5,3L16,4L16.5,4z"/>
    
    <!-- Eyes -->
    <ellipse class="eye" cx="9" cy="9" rx="0.8" ry="1.2"/>
    <ellipse class="eye" cx="15" cy="9" rx="0.8" ry="1.2"/>
    
    <!-- Nose -->
    <ellipse class="nose" cx="12" cy="11" rx="1.2" ry="0.9"/>
    
    <!-- Mouth with tongue -->
    <path class="outline" d="M9.5,13c0.8,0.8,1.5,1,2.5,1s1.7-0.2,2.5-1"/>
    <ellipse class="tongue" cx="12" cy="13.2" rx="0.8" ry="0.4"/>
  </g>
</svg>